<mxfile host="app.diagrams.net" agent="Mozilla/5.0 (X11; Linux x86_64; rv:131.0) Gecko/20100101 Firefox/131.0" version="24.8.2" pages="2">
  <diagram id="R2lEEEUBdFMjLlhIrx00" name="Page-1">
    <mxGraphModel dx="2284" dy="741" grid="1" gridSize="10" guides="1" tooltips="1" connect="1" arrows="1" fold="1" page="1" pageScale="1" pageWidth="850" pageHeight="1100" math="0" shadow="0" extFonts="Permanent Marker^https://fonts.googleapis.com/css?family=Permanent+Marker">
      <root>
        <mxCell id="0" />
        <mxCell id="1" parent="0" />
        <mxCell id="3O7rbGkJ2Zelrd1Z9RdZ-5" style="edgeStyle=orthogonalEdgeStyle;rounded=0;orthogonalLoop=1;jettySize=auto;html=1;" edge="1" parent="1" source="sGN7YLMeac9mMzE8xggY-1" target="sGN7YLMeac9mMzE8xggY-4">
          <mxGeometry relative="1" as="geometry" />
        </mxCell>
        <mxCell id="3O7rbGkJ2Zelrd1Z9RdZ-6" style="edgeStyle=orthogonalEdgeStyle;rounded=0;orthogonalLoop=1;jettySize=auto;html=1;entryX=0;entryY=0.5;entryDx=0;entryDy=0;" edge="1" parent="1" source="sGN7YLMeac9mMzE8xggY-1" target="3O7rbGkJ2Zelrd1Z9RdZ-1">
          <mxGeometry relative="1" as="geometry" />
        </mxCell>
        <mxCell id="3O7rbGkJ2Zelrd1Z9RdZ-8" style="edgeStyle=orthogonalEdgeStyle;rounded=0;orthogonalLoop=1;jettySize=auto;html=1;exitX=0.5;exitY=0;exitDx=0;exitDy=0;entryX=0.5;entryY=0;entryDx=0;entryDy=0;" edge="1" parent="1" source="sGN7YLMeac9mMzE8xggY-1" target="sGN7YLMeac9mMzE8xggY-6">
          <mxGeometry relative="1" as="geometry" />
        </mxCell>
        <mxCell id="3O7rbGkJ2Zelrd1Z9RdZ-13" value="" style="edgeStyle=orthogonalEdgeStyle;rounded=0;orthogonalLoop=1;jettySize=auto;html=1;" edge="1" parent="1" source="sGN7YLMeac9mMzE8xggY-1" target="3O7rbGkJ2Zelrd1Z9RdZ-12">
          <mxGeometry relative="1" as="geometry">
            <Array as="points">
              <mxPoint x="50" y="332" />
            </Array>
          </mxGeometry>
        </mxCell>
        <mxCell id="sGN7YLMeac9mMzE8xggY-1" value="Home page (wiki page searcher)" style="rounded=0;whiteSpace=wrap;html=1;" parent="1" vertex="1">
          <mxGeometry x="95" y="302" width="120" height="60" as="geometry" />
        </mxCell>
        <mxCell id="sGN7YLMeac9mMzE8xggY-4" value="View Page" style="rounded=0;whiteSpace=wrap;html=1;" parent="1" vertex="1">
          <mxGeometry x="95" y="730" width="120" height="60" as="geometry" />
        </mxCell>
        <mxCell id="sGN7YLMeac9mMzE8xggY-12" style="edgeStyle=orthogonalEdgeStyle;rounded=0;orthogonalLoop=1;jettySize=auto;html=1;entryX=0.851;entryY=1.058;entryDx=0;entryDy=0;entryPerimeter=0;" parent="1" source="sGN7YLMeac9mMzE8xggY-6" target="sGN7YLMeac9mMzE8xggY-1" edge="1">
          <mxGeometry relative="1" as="geometry">
            <mxPoint x="285" y="402" as="targetPoint" />
            <Array as="points">
              <mxPoint x="495" y="470" />
              <mxPoint x="197" y="470" />
            </Array>
          </mxGeometry>
        </mxCell>
        <mxCell id="sGN7YLMeac9mMzE8xggY-15" value="" style="edgeStyle=orthogonalEdgeStyle;rounded=0;orthogonalLoop=1;jettySize=auto;html=1;" parent="1" source="sGN7YLMeac9mMzE8xggY-6" target="sGN7YLMeac9mMzE8xggY-14" edge="1">
          <mxGeometry relative="1" as="geometry" />
        </mxCell>
        <mxCell id="sGN7YLMeac9mMzE8xggY-6" value="Create Page (y/n)" style="rounded=0;whiteSpace=wrap;html=1;" parent="1" vertex="1">
          <mxGeometry x="435" y="302" width="120" height="60" as="geometry" />
        </mxCell>
        <mxCell id="sGN7YLMeac9mMzE8xggY-8" value="If page DNE" style="text;html=1;align=center;verticalAlign=middle;resizable=0;points=[];autosize=1;strokeColor=none;fillColor=none;" parent="1" vertex="1">
          <mxGeometry x="265" y="250" width="90" height="30" as="geometry" />
        </mxCell>
        <mxCell id="sGN7YLMeac9mMzE8xggY-9" value="If page exists" style="text;html=1;align=center;verticalAlign=middle;resizable=0;points=[];autosize=1;strokeColor=none;fillColor=none;rotation=-90;" parent="1" vertex="1">
          <mxGeometry x="95" y="592" width="90" height="30" as="geometry" />
        </mxCell>
        <mxCell id="sGN7YLMeac9mMzE8xggY-13" value="No" style="text;html=1;align=center;verticalAlign=middle;resizable=0;points=[];autosize=1;strokeColor=none;fillColor=none;" parent="1" vertex="1">
          <mxGeometry x="380" y="442" width="40" height="30" as="geometry" />
        </mxCell>
        <mxCell id="sGN7YLMeac9mMzE8xggY-21" value="" style="edgeStyle=orthogonalEdgeStyle;rounded=0;orthogonalLoop=1;jettySize=auto;html=1;" parent="1" source="sGN7YLMeac9mMzE8xggY-14" target="sGN7YLMeac9mMzE8xggY-20" edge="1">
          <mxGeometry relative="1" as="geometry" />
        </mxCell>
        <mxCell id="sGN7YLMeac9mMzE8xggY-14" value="Create Page (form)" style="rounded=0;whiteSpace=wrap;html=1;" parent="1" vertex="1">
          <mxGeometry x="635" y="302" width="120" height="60" as="geometry" />
        </mxCell>
        <mxCell id="sGN7YLMeac9mMzE8xggY-28" style="edgeStyle=orthogonalEdgeStyle;rounded=0;orthogonalLoop=1;jettySize=auto;html=1;exitX=0.5;exitY=1;exitDx=0;exitDy=0;entryX=0;entryY=0.5;entryDx=0;entryDy=0;" parent="1" source="sGN7YLMeac9mMzE8xggY-16" target="sGN7YLMeac9mMzE8xggY-22" edge="1">
          <mxGeometry relative="1" as="geometry" />
        </mxCell>
        <mxCell id="3O7rbGkJ2Zelrd1Z9RdZ-14" style="edgeStyle=orthogonalEdgeStyle;rounded=0;orthogonalLoop=1;jettySize=auto;html=1;entryX=1;entryY=0.5;entryDx=0;entryDy=0;" edge="1" parent="1" source="sGN7YLMeac9mMzE8xggY-16" target="3O7rbGkJ2Zelrd1Z9RdZ-12">
          <mxGeometry relative="1" as="geometry" />
        </mxCell>
        <mxCell id="sGN7YLMeac9mMzE8xggY-16" value="Stores form answers in blog.db" style="ellipse;whiteSpace=wrap;html=1;rounded=0;" parent="1" vertex="1">
          <mxGeometry x="525" y="512" width="80" height="80" as="geometry" />
        </mxCell>
        <mxCell id="sGN7YLMeac9mMzE8xggY-18" value="yes" style="text;html=1;align=center;verticalAlign=middle;resizable=0;points=[];autosize=1;strokeColor=none;fillColor=none;" parent="1" vertex="1">
          <mxGeometry x="565" y="300" width="40" height="30" as="geometry" />
        </mxCell>
        <mxCell id="sGN7YLMeac9mMzE8xggY-23" value="" style="edgeStyle=orthogonalEdgeStyle;rounded=0;orthogonalLoop=1;jettySize=auto;html=1;" parent="1" source="sGN7YLMeac9mMzE8xggY-20" target="sGN7YLMeac9mMzE8xggY-22" edge="1">
          <mxGeometry relative="1" as="geometry" />
        </mxCell>
        <mxCell id="sGN7YLMeac9mMzE8xggY-27" style="edgeStyle=orthogonalEdgeStyle;rounded=0;orthogonalLoop=1;jettySize=auto;html=1;exitX=0;exitY=0.5;exitDx=0;exitDy=0;" parent="1" source="sGN7YLMeac9mMzE8xggY-20" target="sGN7YLMeac9mMzE8xggY-16" edge="1">
          <mxGeometry relative="1" as="geometry" />
        </mxCell>
        <mxCell id="sGN7YLMeac9mMzE8xggY-20" value="forms.py" style="rounded=0;whiteSpace=wrap;html=1;" parent="1" vertex="1">
          <mxGeometry x="635" y="442" width="120" height="60" as="geometry" />
        </mxCell>
        <mxCell id="sGN7YLMeac9mMzE8xggY-26" style="edgeStyle=orthogonalEdgeStyle;rounded=0;orthogonalLoop=1;jettySize=auto;html=1;exitX=0.5;exitY=1;exitDx=0;exitDy=0;entryX=1;entryY=0.5;entryDx=0;entryDy=0;" parent="1" source="sGN7YLMeac9mMzE8xggY-22" target="sGN7YLMeac9mMzE8xggY-4" edge="1">
          <mxGeometry relative="1" as="geometry" />
        </mxCell>
        <mxCell id="sGN7YLMeac9mMzE8xggY-22" value="Generates new HTML page&amp;nbsp;&amp;nbsp;" style="rounded=0;whiteSpace=wrap;html=1;" parent="1" vertex="1">
          <mxGeometry x="635" y="672" width="120" height="60" as="geometry" />
        </mxCell>
        <mxCell id="3O7rbGkJ2Zelrd1Z9RdZ-10" style="edgeStyle=orthogonalEdgeStyle;rounded=0;orthogonalLoop=1;jettySize=auto;html=1;entryX=1;entryY=0.5;entryDx=0;entryDy=0;" edge="1" parent="1" source="3O7rbGkJ2Zelrd1Z9RdZ-1" target="3O7rbGkJ2Zelrd1Z9RdZ-9">
          <mxGeometry relative="1" as="geometry">
            <mxPoint x="370" y="410" as="targetPoint" />
            <Array as="points">
              <mxPoint x="391" y="332" />
              <mxPoint x="391" y="420" />
            </Array>
          </mxGeometry>
        </mxCell>
        <mxCell id="3O7rbGkJ2Zelrd1Z9RdZ-1" value="&lt;div&gt;Login/signup&lt;/div&gt;" style="whiteSpace=wrap;html=1;" vertex="1" parent="1">
          <mxGeometry x="235" y="302" width="120" height="60" as="geometry" />
        </mxCell>
        <mxCell id="3O7rbGkJ2Zelrd1Z9RdZ-9" value="logins.db" style="ellipse;whiteSpace=wrap;html=1;" vertex="1" parent="1">
          <mxGeometry x="280" y="372" width="80" height="80" as="geometry" />
        </mxCell>
        <mxCell id="3O7rbGkJ2Zelrd1Z9RdZ-11" style="edgeStyle=orthogonalEdgeStyle;rounded=0;orthogonalLoop=1;jettySize=auto;html=1;entryX=0.6;entryY=1.033;entryDx=0;entryDy=0;entryPerimeter=0;" edge="1" parent="1" source="3O7rbGkJ2Zelrd1Z9RdZ-9" target="sGN7YLMeac9mMzE8xggY-1">
          <mxGeometry relative="1" as="geometry" />
        </mxCell>
        <mxCell id="3O7rbGkJ2Zelrd1Z9RdZ-16" style="edgeStyle=orthogonalEdgeStyle;rounded=0;orthogonalLoop=1;jettySize=auto;html=1;entryX=0;entryY=0.5;entryDx=0;entryDy=0;" edge="1" parent="1" source="3O7rbGkJ2Zelrd1Z9RdZ-12" target="sGN7YLMeac9mMzE8xggY-4">
          <mxGeometry relative="1" as="geometry">
            <mxPoint x="80" y="760" as="targetPoint" />
            <Array as="points">
              <mxPoint x="50" y="760" />
            </Array>
          </mxGeometry>
        </mxCell>
        <mxCell id="3O7rbGkJ2Zelrd1Z9RdZ-12" value="&lt;div&gt;UserBlog.html&lt;/div&gt;" style="rounded=0;whiteSpace=wrap;html=1;" vertex="1" parent="1">
          <mxGeometry x="-10" y="452" width="120" height="60" as="geometry" />
        </mxCell>
      </root>
    </mxGraphModel>
  </diagram>
  <diagram id="subQxHKPp5Nqwp7QBH-N" name="Page-2">
    <mxGraphModel dx="1417" dy="1204" grid="0" gridSize="10" guides="1" tooltips="1" connect="1" arrows="1" fold="1" page="0" pageScale="1" pageWidth="850" pageHeight="1100" math="0" shadow="0">
      <root>
        <mxCell id="0" />
        <mxCell id="1" parent="0" />
        <mxCell id="aPovaBDtiKZtqpHYKBh6-3" value="" style="edgeStyle=none;curved=1;rounded=0;orthogonalLoop=1;jettySize=auto;html=1;fontSize=12;startSize=8;endSize=8;" edge="1" parent="1" source="aPovaBDtiKZtqpHYKBh6-1" target="aPovaBDtiKZtqpHYKBh6-2">
          <mxGeometry relative="1" as="geometry" />
        </mxCell>
        <mxCell id="aPovaBDtiKZtqpHYKBh6-6" value="" style="edgeStyle=none;curved=1;rounded=0;orthogonalLoop=1;jettySize=auto;html=1;fontSize=12;startSize=8;endSize=8;" edge="1" parent="1" source="aPovaBDtiKZtqpHYKBh6-1" target="aPovaBDtiKZtqpHYKBh6-5">
          <mxGeometry relative="1" as="geometry" />
        </mxCell>
        <mxCell id="aPovaBDtiKZtqpHYKBh6-10" value="" style="edgeStyle=none;curved=1;rounded=0;orthogonalLoop=1;jettySize=auto;html=1;fontSize=12;startSize=8;endSize=8;" edge="1" parent="1" source="aPovaBDtiKZtqpHYKBh6-1" target="aPovaBDtiKZtqpHYKBh6-9">
          <mxGeometry relative="1" as="geometry" />
        </mxCell>
        <mxCell id="aPovaBDtiKZtqpHYKBh6-25" value="" style="edgeStyle=none;curved=1;rounded=0;orthogonalLoop=1;jettySize=auto;html=1;fontSize=12;startSize=8;endSize=8;" edge="1" parent="1" source="aPovaBDtiKZtqpHYKBh6-1" target="aPovaBDtiKZtqpHYKBh6-24">
          <mxGeometry relative="1" as="geometry" />
        </mxCell>
        <mxCell id="aPovaBDtiKZtqpHYKBh6-28" style="edgeStyle=none;curved=1;rounded=0;orthogonalLoop=1;jettySize=auto;html=1;exitX=0;exitY=1;exitDx=0;exitDy=0;entryX=1;entryY=0.5;entryDx=0;entryDy=0;fontSize=12;startSize=8;endSize=8;" edge="1" parent="1" source="aPovaBDtiKZtqpHYKBh6-1" target="aPovaBDtiKZtqpHYKBh6-27">
          <mxGeometry relative="1" as="geometry">
            <Array as="points">
              <mxPoint x="-66" y="45" />
            </Array>
          </mxGeometry>
        </mxCell>
        <mxCell id="aPovaBDtiKZtqpHYKBh6-1" value="&lt;div&gt;Home (/)&lt;/div&gt;" style="whiteSpace=wrap;html=1;" vertex="1" parent="1">
          <mxGeometry x="-19" y="-89" width="120" height="60" as="geometry" />
        </mxCell>
        <mxCell id="aPovaBDtiKZtqpHYKBh6-15" style="edgeStyle=none;curved=1;rounded=0;orthogonalLoop=1;jettySize=auto;html=1;exitX=0.5;exitY=0;exitDx=0;exitDy=0;fontSize=12;startSize=8;endSize=8;entryX=1;entryY=0.5;entryDx=0;entryDy=0;" edge="1" parent="1" source="aPovaBDtiKZtqpHYKBh6-2" target="aPovaBDtiKZtqpHYKBh6-5">
          <mxGeometry relative="1" as="geometry">
            <mxPoint x="281" y="-252" as="targetPoint" />
            <Array as="points">
              <mxPoint x="296" y="-265" />
            </Array>
          </mxGeometry>
        </mxCell>
        <mxCell id="aPovaBDtiKZtqpHYKBh6-18" style="edgeStyle=none;curved=1;rounded=0;orthogonalLoop=1;jettySize=auto;html=1;fontSize=12;startSize=8;endSize=8;exitX=0.5;exitY=1;exitDx=0;exitDy=0;" edge="1" parent="1" source="aPovaBDtiKZtqpHYKBh6-2">
          <mxGeometry relative="1" as="geometry">
            <mxPoint x="63" y="-24" as="targetPoint" />
            <Array as="points">
              <mxPoint x="151" y="49" />
            </Array>
          </mxGeometry>
        </mxCell>
        <mxCell id="aPovaBDtiKZtqpHYKBh6-2" value="&lt;div&gt;Login&lt;/div&gt;" style="whiteSpace=wrap;html=1;" vertex="1" parent="1">
          <mxGeometry x="221" y="-89" width="120" height="55" as="geometry" />
        </mxCell>
        <mxCell id="aPovaBDtiKZtqpHYKBh6-4" value="&lt;font style=&quot;font-size: 11px;&quot;&gt;/login&lt;br&gt;&lt;/font&gt;" style="text;html=1;align=center;verticalAlign=middle;resizable=0;points=[];autosize=1;strokeColor=none;fillColor=none;fontSize=16;" vertex="1" parent="1">
          <mxGeometry x="129.5" y="-83.5" width="45" height="31" as="geometry" />
        </mxCell>
        <mxCell id="aPovaBDtiKZtqpHYKBh6-5" value="&lt;div&gt;Signup&lt;/div&gt;" style="whiteSpace=wrap;html=1;" vertex="1" parent="1">
          <mxGeometry x="-19" y="-269" width="120" height="60" as="geometry" />
        </mxCell>
        <mxCell id="aPovaBDtiKZtqpHYKBh6-8" value="&lt;div&gt;&lt;font style=&quot;font-size: 11px;&quot;&gt;/signup&lt;/font&gt;&lt;/div&gt;" style="text;html=1;align=center;verticalAlign=middle;resizable=0;points=[];autosize=1;strokeColor=none;fillColor=none;fontSize=16;" vertex="1" parent="1">
          <mxGeometry x="34" y="-150" width="53" height="31" as="geometry" />
        </mxCell>
        <mxCell id="aPovaBDtiKZtqpHYKBh6-12" value="" style="edgeStyle=none;curved=1;rounded=0;orthogonalLoop=1;jettySize=auto;html=1;fontSize=12;startSize=8;endSize=8;" edge="1" parent="1" source="aPovaBDtiKZtqpHYKBh6-9" target="aPovaBDtiKZtqpHYKBh6-11">
          <mxGeometry relative="1" as="geometry" />
        </mxCell>
        <mxCell id="aPovaBDtiKZtqpHYKBh6-9" value="&lt;div&gt;Users (alphabetically sorted)&lt;/div&gt;" style="whiteSpace=wrap;html=1;" vertex="1" parent="1">
          <mxGeometry x="-19" y="91" width="120" height="60" as="geometry" />
        </mxCell>
        <mxCell id="aPovaBDtiKZtqpHYKBh6-14" value="" style="edgeStyle=none;curved=1;rounded=0;orthogonalLoop=1;jettySize=auto;html=1;fontSize=12;startSize=8;endSize=8;" edge="1" parent="1" source="aPovaBDtiKZtqpHYKBh6-11" target="aPovaBDtiKZtqpHYKBh6-13">
          <mxGeometry relative="1" as="geometry" />
        </mxCell>
        <mxCell id="aPovaBDtiKZtqpHYKBh6-11" value="&lt;div&gt;View Blogs of user&lt;/div&gt;&lt;div&gt;(/username)&lt;/div&gt;" style="whiteSpace=wrap;html=1;" vertex="1" parent="1">
          <mxGeometry x="-19" y="271" width="120" height="60" as="geometry" />
        </mxCell>
        <mxCell id="aPovaBDtiKZtqpHYKBh6-13" value="&lt;div&gt;View Blog &lt;br&gt;&lt;/div&gt;&lt;div&gt;(/username/{page_id})&lt;/div&gt;" style="whiteSpace=wrap;html=1;" vertex="1" parent="1">
          <mxGeometry x="-19" y="451" width="120" height="60" as="geometry" />
        </mxCell>
        <mxCell id="aPovaBDtiKZtqpHYKBh6-17" value="&lt;div&gt;&lt;font style=&quot;font-size: 11px;&quot;&gt;/signup&lt;/font&gt;&lt;/div&gt;" style="text;html=1;align=center;verticalAlign=middle;resizable=0;points=[];autosize=1;strokeColor=none;fillColor=none;fontSize=16;" vertex="1" parent="1">
          <mxGeometry x="252" y="-236" width="53" height="31" as="geometry" />
        </mxCell>
        <mxCell id="aPovaBDtiKZtqpHYKBh6-20" value="&lt;div&gt;&lt;font style=&quot;font-size: 11px;&quot;&gt;Redirect after login;&amp;nbsp;&lt;/font&gt;&lt;/div&gt;&lt;div&gt;&lt;font style=&quot;font-size: 11px;&quot;&gt;home page shows own blog list&lt;/font&gt;&lt;/div&gt;" style="text;html=1;align=center;verticalAlign=middle;resizable=0;points=[];autosize=1;strokeColor=none;fillColor=none;fontSize=16;" vertex="1" parent="1">
          <mxGeometry x="93" y="10" width="170" height="50" as="geometry" />
        </mxCell>
        <mxCell id="aPovaBDtiKZtqpHYKBh6-24" value="&lt;div&gt;Create Page&lt;/div&gt;" style="whiteSpace=wrap;html=1;" vertex="1" parent="1">
          <mxGeometry x="-259" y="-89" width="120" height="60" as="geometry" />
        </mxCell>
        <mxCell id="aPovaBDtiKZtqpHYKBh6-26" value="&lt;div&gt;&lt;font style=&quot;font-size: 11px;&quot;&gt;/create&lt;/font&gt;&lt;/div&gt;" style="text;html=1;align=center;verticalAlign=middle;resizable=0;points=[];autosize=1;strokeColor=none;fillColor=none;fontSize=16;" vertex="1" parent="1">
          <mxGeometry x="-108" y="-83.5" width="51" height="31" as="geometry" />
        </mxCell>
        <mxCell id="aPovaBDtiKZtqpHYKBh6-30" style="edgeStyle=none;curved=1;rounded=0;orthogonalLoop=1;jettySize=auto;html=1;entryX=0.5;entryY=0;entryDx=0;entryDy=0;fontSize=12;startSize=8;endSize=8;" edge="1" parent="1" source="aPovaBDtiKZtqpHYKBh6-27" target="aPovaBDtiKZtqpHYKBh6-29">
          <mxGeometry relative="1" as="geometry" />
        </mxCell>
        <mxCell id="aPovaBDtiKZtqpHYKBh6-33" value="" style="edgeStyle=none;curved=1;rounded=0;orthogonalLoop=1;jettySize=auto;html=1;fontSize=12;startSize=8;endSize=8;" edge="1" parent="1" source="aPovaBDtiKZtqpHYKBh6-27" target="aPovaBDtiKZtqpHYKBh6-32">
          <mxGeometry relative="1" as="geometry" />
        </mxCell>
        <mxCell id="aPovaBDtiKZtqpHYKBh6-27" value="&lt;div&gt;{page_id}.html&lt;/div&gt;&lt;div&gt;(own pages) &lt;br&gt;&lt;/div&gt;" style="whiteSpace=wrap;html=1;" vertex="1" parent="1">
          <mxGeometry x="-272" y="23" width="120" height="60" as="geometry" />
        </mxCell>
        <mxCell id="aPovaBDtiKZtqpHYKBh6-31" value="" style="edgeStyle=none;curved=1;rounded=0;orthogonalLoop=1;jettySize=auto;html=1;fontSize=12;startSize=8;endSize=8;entryX=1;entryY=0.5;entryDx=0;entryDy=0;exitX=1;exitY=0.5;exitDx=0;exitDy=0;" edge="1" parent="1" source="aPovaBDtiKZtqpHYKBh6-29" target="aPovaBDtiKZtqpHYKBh6-27">
          <mxGeometry relative="1" as="geometry">
            <Array as="points">
              <mxPoint x="-70" y="113" />
            </Array>
          </mxGeometry>
        </mxCell>
        <mxCell id="aPovaBDtiKZtqpHYKBh6-29" value="&lt;div&gt;{page_id}.html/edit&lt;/div&gt;" style="whiteSpace=wrap;html=1;" vertex="1" parent="1">
          <mxGeometry x="-277" y="143" width="120" height="60" as="geometry" />
        </mxCell>
        <mxCell id="aPovaBDtiKZtqpHYKBh6-32" value="{page_id}.html/version[id]" style="whiteSpace=wrap;html=1;" vertex="1" parent="1">
          <mxGeometry x="-512" y="23" width="120" height="60" as="geometry" />
        </mxCell>
        <mxCell id="aPovaBDtiKZtqpHYKBh6-35" value="" style="endArrow=classic;startArrow=classic;html=1;rounded=0;fontSize=12;startSize=8;endSize=8;curved=1;exitX=0;exitY=0.5;exitDx=0;exitDy=0;" edge="1" parent="1" source="aPovaBDtiKZtqpHYKBh6-29">
          <mxGeometry width="50" height="50" relative="1" as="geometry">
            <mxPoint x="-501" y="133" as="sourcePoint" />
            <mxPoint x="-451" y="83" as="targetPoint" />
          </mxGeometry>
        </mxCell>
      </root>
    </mxGraphModel>
  </diagram>
</mxfile>
